# 3ds Max Wavefront OBJ Exporter v0.99 - (c)2007 guruware
# File Created: 27.10.2020 14:09:05

mtllib BedText.mtl

#
# object Box001
#

v  -29.7738 0.0000 58.6876
v  -29.7738 0.0000 53.2403
v  -22.2313 0.0000 53.2403
v  -22.2313 0.0000 58.6876
v  -29.7738 18.4372 58.6876
v  -22.2313 18.4372 58.6876
v  -22.2313 18.4372 53.2403
v  -29.7738 18.4372 53.2403
# 8 vertices

vn -0.5774 -0.5774 0.5774
vn -0.5774 -0.5774 -0.5774
vn 0.5774 -0.5774 -0.5774
vn 0.5774 -0.5774 0.5774
vn -0.5774 0.5774 0.5774
vn 0.5774 0.5774 0.5774
vn 0.5774 0.5774 -0.5774
vn -0.5774 0.5774 -0.5774
# 8 vertex normals

vt 1.0000 0.0000 0.0000
vt 1.0000 1.0000 0.0000
vt 0.0000 1.0000 0.0000
vt 0.0000 0.0000 0.0000
# 4 texture coords

o Box001
g Box001
usemtl Solid_Glass
s 2
f 1/1/1 2/2/2 3/3/3 4/4/4 
s 4
f 5/4/5 6/1/6 7/2/7 8/3/8 
s 8
f 1/4/1 4/1/4 6/2/6 5/3/5 
s 16
f 4/4/4 3/1/3 7/2/7 6/3/6 
s 32
f 3/4/3 2/1/2 8/2/8 7/3/7 
s 64
f 2/4/2 1/1/1 5/2/5 8/3/8 
# 6 polygons

#
# object Box002
#

v  21.8148 0.0000 58.6876
v  21.8148 0.0000 53.2403
v  29.3572 0.0000 53.2403
v  29.3572 0.0000 58.6876
v  21.8148 18.4372 58.6876
v  29.3572 18.4372 58.6876
v  29.3572 18.4372 53.2403
v  21.8148 18.4372 53.2403
# 8 vertices

vn -0.5774 -0.5774 0.5774
vn -0.5774 -0.5774 -0.5774
vn 0.5774 -0.5774 -0.5774
vn 0.5774 -0.5774 0.5774
vn -0.5774 0.5774 0.5774
vn 0.5774 0.5774 0.5774
vn 0.5774 0.5774 -0.5774
vn -0.5774 0.5774 -0.5774
# 8 vertex normals

vt 1.0000 0.0000 0.0000
vt 1.0000 1.0000 0.0000
vt 0.0000 1.0000 0.0000
vt 0.0000 0.0000 0.0000
# 4 texture coords

o Box002
g Box002
usemtl Solid_Glass
s 2
f 9/5/9 10/6/10 11/7/11 12/8/12 
s 4
f 13/8/13 14/5/14 15/6/15 16/7/16 
s 8
f 9/8/9 12/5/12 14/6/14 13/7/13 
s 16
f 12/8/12 11/5/11 15/6/15 14/7/14 
s 32
f 11/8/11 10/5/10 16/6/16 15/7/15 
s 64
f 10/8/10 9/5/9 13/6/13 16/7/16 
# 6 polygons

#
# object Box003
#

v  21.8148 0.0000 -53.3071
v  21.8148 0.0000 -58.7544
v  29.3572 0.0000 -58.7544
v  29.3572 0.0000 -53.3071
v  21.8148 18.4372 -53.3071
v  29.3572 18.4372 -53.3071
v  29.3572 18.4372 -58.7544
v  21.8148 18.4372 -58.7544
# 8 vertices

vn -0.5774 -0.5774 0.5774
vn -0.5774 -0.5774 -0.5774
vn 0.5774 -0.5774 -0.5774
vn 0.5774 -0.5774 0.5774
vn -0.5774 0.5774 0.5774
vn 0.5774 0.5774 0.5774
vn 0.5774 0.5774 -0.5774
vn -0.5774 0.5774 -0.5774
# 8 vertex normals

vt 1.0000 0.0000 0.0000
vt 1.0000 1.0000 0.0000
vt 0.0000 1.0000 0.0000
vt 0.0000 0.0000 0.0000
# 4 texture coords

o Box003
g Box003
usemtl Solid_Glass
s 2
f 17/9/17 18/10/18 19/11/19 20/12/20 
s 4
f 21/12/21 22/9/22 23/10/23 24/11/24 
s 8
f 17/12/17 20/9/20 22/10/22 21/11/21 
s 16
f 20/12/20 19/9/19 23/10/23 22/11/22 
s 32
f 19/12/19 18/9/18 24/10/24 23/11/23 
s 64
f 18/12/18 17/9/17 21/10/21 24/11/24 
# 6 polygons

#
# object Box004
#

v  -29.7738 0.0000 -53.3071
v  -29.7738 0.0000 -58.7544
v  -22.2313 0.0000 -58.7544
v  -22.2313 0.0000 -53.3071
v  -29.7738 18.4372 -53.3071
v  -22.2313 18.4372 -53.3071
v  -22.2313 18.4372 -58.7544
v  -29.7738 18.4372 -58.7544
# 8 vertices

vn -0.5774 -0.5774 0.5774
vn -0.5774 -0.5774 -0.5774
vn 0.5774 -0.5774 -0.5774
vn 0.5774 -0.5774 0.5774
vn -0.5774 0.5774 0.5774
vn 0.5774 0.5774 0.5774
vn 0.5774 0.5774 -0.5774
vn -0.5774 0.5774 -0.5774
# 8 vertex normals

vt 1.0000 0.0000 0.0000
vt 1.0000 1.0000 0.0000
vt 0.0000 1.0000 0.0000
vt 0.0000 0.0000 0.0000
# 4 texture coords

o Box004
g Box004
usemtl Solid_Glass
s 2
f 25/13/25 26/14/26 27/15/27 28/16/28 
s 4
f 29/16/29 30/13/30 31/14/31 32/15/32 
s 8
f 25/16/25 28/13/28 30/14/30 29/15/29 
s 16
f 28/16/28 27/13/27 31/14/31 30/15/30 
s 32
f 27/16/27 26/13/26 32/14/32 31/15/31 
s 64
f 26/16/26 25/13/25 29/14/29 32/15/32 
# 6 polygons

#
# object Box005
#

v  -29.7622 18.3077 -59.8968
v  29.2909 18.3077 -59.8968
v  29.2909 18.3077 58.6876
v  -29.7622 18.3077 58.6876
v  29.2909 19.6168 58.6876
v  -29.7622 19.6168 58.6876
v  -29.7622 19.6168 -59.8968
v  29.2909 19.6168 -59.8968
v  27.4168 19.6168 56.9776
v  -28.1305 19.6168 56.9776
v  27.4168 19.6168 -57.5177
v  -28.1305 19.6168 -57.5177
v  27.4168 19.4059 56.9776
v  27.4168 19.4059 -57.5177
v  -28.1305 19.4059 -57.5177
v  -28.1305 19.4059 56.9776
# 16 vertices

vn -0.5774 -0.5774 -0.5774
vn 0.5774 -0.5774 -0.5774
vn 0.5774 -0.5774 0.5774
vn -0.5774 -0.5774 0.5774
vn 0.5774 0.5774 0.5774
vn -0.5774 0.5774 0.5774
vn -0.5774 0.5774 -0.5774
vn 0.5774 0.5774 -0.5774
vn -0.3015 0.9045 -0.3015
vn 0.3015 0.9045 -0.3015
vn -0.3015 0.9045 0.3015
vn 0.3015 0.9045 0.3015
# 12 vertex normals

vt 1.0000 1.0000 0.0000
vt 0.0000 1.0000 0.0000
vt 0.0000 0.0000 0.0000
vt 1.0000 0.0000 0.0000
vt 0.9683 0.0144 0.0000
vt 0.0276 0.0144 0.0000
vt 0.9683 0.9799 0.0000
vt 0.0276 0.9799 0.0000
vt 1.0000 0.4218 0.0000
vt 0.0000 0.4218 0.0000
# 10 texture coords

o Box005
g Box005
usemtl Solid_Glass
s 2
f 33/17/33 34/18/34 35/19/35 36/20/36 
s 8
f 35/20/35 37/17/37 38/18/38 36/19/36 
s 64
f 36/20/36 38/17/38 39/18/39 33/19/33 
s 32
f 33/20/33 39/17/39 40/18/40 34/19/34 
s 16
f 34/20/34 40/17/40 37/18/37 35/19/35 
s 4
f 41/21/41 42/22/42 38/19/38 37/20/37 
f 43/23/43 41/21/41 37/20/37 40/17/40 
f 44/24/44 43/23/43 40/17/40 39/18/39 
f 42/22/42 44/24/44 39/18/39 38/19/38 
s 1
f 45/19/39 46/18/38 47/17/37 48/20/40 
s 256
f 41/25/41 45/20/39 48/19/40 42/26/42 
s 2048
f 42/25/42 48/20/40 47/19/37 44/26/44 
s 1024
f 44/25/44 47/20/37 46/19/38 43/26/43 
s 512
f 43/25/43 46/20/38 45/19/39 41/26/41 
# 14 polygons

