# 3ds Max Wavefront OBJ Exporter v0.99 - (c)2007 guruware
# File Created: 27.10.2020 14:42:13

mtllib WallText.mtl

#
# object Box001
#

v  -9.5690 107.8808 50.2192
v  -9.5690 0.7802 50.2192
v  -1.2849 0.7802 50.2192
v  -1.2849 107.8808 50.2192
v  -1.2849 0.7803 -119.4298
v  -9.5690 0.7803 -119.4298
v  -9.5690 107.8808 -119.4298
v  -1.2849 107.8808 -119.4298
# 8 vertices

vn -0.5774 0.5774 0.5774
vn -0.5774 -0.5774 0.5774
vn 0.5774 -0.5774 0.5774
vn 0.5774 0.5774 0.5774
vn 0.5774 -0.5774 -0.5774
vn -0.5774 -0.5774 -0.5774
vn -0.5774 0.5774 -0.5774
vn 0.5774 0.5774 -0.5774
# 8 vertex normals

vt 0.0000 1.0000 0.0000
vt 0.0000 0.0000 0.0000
vt 1.0000 0.0000 0.0000
vt 1.0000 1.0000 0.0000
# 4 texture coords

o Box001
g Box001
usemtl 13___Brushed_Metal__2
s 2
f 1/1/1 2/2/2 3/3/3 4/4/4 
s 4
f 5/2/5 6/3/6 7/4/7 8/1/8 
s 8
f 3/3/3 2/2/2 6/1/6 5/4/5 
s 16
f 4/3/4 3/2/3 5/1/5 8/4/8 
s 32
f 1/3/1 4/2/4 8/1/8 7/4/7 
s 64
f 2/3/2 1/2/1 7/1/7 6/4/6 
# 6 polygons

